<svg width="800" height="314" viewBox="0 0 800 314" fill="none" xmlns="http://www.w3.org/2000/svg">
<path d="M763.017 313.125H36.9831C16.5873 313.125 0 296.538 0 276.142V37.7252C0 17.3294 16.5873 0.742126 36.9831 0.742126H763.499C783.619 0.742126 800 17.123 800 37.2434V276.142C800 296.538 783.413 313.125 763.017 313.125ZM36.9831 2.82988C17.7344 2.82988 2.08775 18.4766 2.08775 37.7252V276.142C2.08775 295.391 17.7344 311.038 36.9831 311.038H763.017C782.266 311.038 797.912 295.391 797.912 276.142V37.2434C797.912 18.2701 782.472 2.82988 763.499 2.82988H36.9831Z" fill="white"/>
<path d="M57.4933 167.694L70.9834 200.57L84.9323 167.694L91.7003 210.573H87.433L82.9822 182.056L70.7769 210.573L58.8698 182.056L53.8454 210.573H49.6929L57.4703 167.694H57.4933Z" fill="white"/>
<path d="M108.931 211.307C105.145 211.307 101.566 209.793 98.8821 207.04C96.1978 204.356 94.7295 200.731 94.7295 196.808C94.7295 192.884 96.1978 189.282 98.8821 186.575C101.566 183.822 105.191 182.308 108.931 182.308C112.969 182.308 116.41 183.707 119.163 186.392C121.618 188.778 122.719 192.127 124.073 195.913L129.281 210.527H125.197L122.1 202.589C119.461 208.187 114.689 211.284 108.954 211.284L108.931 211.307ZM108.931 186.323C103.218 186.323 98.5838 191.003 98.5838 196.83C98.5838 202.658 103.195 207.407 108.931 207.407C114.666 207.407 119.209 202.796 119.209 196.83C119.209 190.865 114.598 186.323 108.931 186.323Z" fill="white"/>
<path d="M131.803 194.49C131.803 187.126 136.828 182.331 143.183 182.331C149.538 182.331 154.516 187.172 154.516 194.49V210.55H150.593V194.192C150.593 189.351 147.266 186.254 143.183 186.254C139.099 186.254 135.703 189.351 135.703 194.192V210.55H131.78V194.49H131.803Z" fill="white"/>
<path d="M174.202 211.307C170.416 211.307 166.837 209.839 164.153 207.109C161.469 204.356 160 200.685 160 196.831C160 192.976 161.469 189.351 164.153 186.598C166.837 183.845 170.393 182.4 174.202 182.4C178.01 182.4 181.497 183.868 184.182 186.598C186.866 189.282 188.334 192.976 188.334 196.831V198.23H164.038C164.864 203.782 169.063 207.407 174.202 207.407C176.955 207.407 179.341 206.352 181.681 204.195L184.48 206.81C181.612 209.793 178.125 211.307 174.202 211.307ZM184.319 194.49C182.92 189.351 178.951 186.254 174.225 186.254C169.499 186.254 165.461 189.42 164.13 194.49H184.342H184.319Z" fill="white"/>
<path d="M216.415 199.217C216.415 206.581 211.459 211.307 205.081 211.307C198.703 211.307 193.702 206.512 193.702 199.217V183.088H197.625V199.446C197.625 204.287 200.951 207.384 205.035 207.384C209.119 207.384 212.514 204.287 212.514 199.446V183.088H216.438V199.217H216.415Z" fill="white"/>
<path d="M221.255 183.111H225.408L233.943 205.709L242.477 183.111H246.561L236.168 210.573H231.74L221.278 183.111H221.255Z" fill="white"/>
<path d="M264.043 211.307C260.257 211.307 256.678 209.839 253.994 207.109C251.31 204.356 249.841 200.685 249.841 196.831C249.841 192.976 251.31 189.351 253.994 186.598C256.678 183.845 260.234 182.4 264.043 182.4C267.851 182.4 271.338 183.868 274.023 186.598C276.707 189.282 278.175 192.976 278.175 196.831V198.23H253.879C254.705 203.782 258.904 207.407 264.043 207.407C266.796 207.407 269.182 206.352 271.522 204.195L274.321 206.81C271.453 209.793 267.943 211.307 264.043 211.307ZM274.16 194.49C272.761 189.351 268.792 186.254 264.066 186.254C259.339 186.254 255.302 189.42 253.971 194.49H274.183H274.16Z" fill="white"/>
<path d="M283.544 196.831C283.544 188.021 287.169 183.799 295.864 183.111V187.034C290.083 187.677 287.857 190.476 287.857 196.509V210.596H283.544V196.876V196.831Z" fill="white"/>
<path d="M313.094 211.307C309.308 211.307 305.729 209.793 303.045 207.04C300.361 204.356 298.893 200.731 298.893 196.808C298.893 192.884 300.361 189.282 303.045 186.575C305.729 183.822 309.354 182.308 313.094 182.308C317.132 182.308 320.573 183.707 323.326 186.392C325.781 188.778 326.882 192.127 328.236 195.913L333.444 210.527H329.36L326.263 202.589C323.624 208.187 318.852 211.284 313.117 211.284L313.094 211.307ZM313.094 186.323C307.381 186.323 302.747 191.003 302.747 196.83C302.747 202.658 307.358 207.407 313.094 207.407C318.829 207.407 323.372 202.796 323.372 196.83C323.372 190.865 318.761 186.323 313.094 186.323Z" fill="white"/>
<path d="M335.922 168.91H339.845V186.598C342.873 183.73 346.223 182.4 350.077 182.4C353.932 182.4 357.373 183.868 360.057 186.598C362.741 189.351 364.21 192.976 364.21 196.831C364.21 200.685 362.741 204.379 360.057 207.063C357.373 209.816 353.817 211.33 350.077 211.33C341.956 211.33 335.876 205.204 335.876 195.385C335.876 194.789 335.876 194.146 335.945 193.527V168.933L335.922 168.91ZM350.054 207.407C355.767 207.407 360.401 202.727 360.401 196.899C360.401 191.072 355.79 186.323 350.054 186.323C344.319 186.323 339.707 191.049 339.707 196.899C339.707 202.75 344.319 207.407 350.054 207.407Z" fill="white"/>
<path d="M369.027 168.91H372.996V210.55H369.027V168.91Z" fill="white"/>
<path d="M392.658 211.307C388.873 211.307 385.294 209.839 382.61 207.109C379.925 204.356 378.457 200.685 378.457 196.831C378.457 192.976 379.925 189.351 382.61 186.598C385.294 183.845 388.85 182.4 392.658 182.4C396.467 182.4 399.954 183.868 402.638 186.598C405.323 189.282 406.791 192.976 406.791 196.831V198.23H382.495C383.321 203.782 387.519 207.407 392.658 207.407C395.411 207.407 397.797 206.352 400.138 204.195L402.937 206.81C400.069 209.793 396.581 211.307 392.658 211.307ZM402.776 194.49C401.376 189.351 397.407 186.254 392.681 186.254C387.955 186.254 383.917 189.42 382.587 194.49H402.799H402.776Z" fill="white"/>
<path d="M441.113 167.694L454.603 200.57L468.552 167.694L475.32 210.573H471.053L466.625 182.056L454.419 210.573L442.512 182.056L437.488 210.573H433.335L441.113 167.694Z" fill="white"/>
<path d="M482.524 186.621C485.208 183.868 488.764 182.354 492.573 182.354C496.381 182.354 499.869 183.868 502.553 186.621C505.237 189.305 506.705 192.999 506.705 196.853C506.705 200.708 505.237 204.401 502.553 207.086C499.869 209.839 496.358 211.353 492.573 211.353C488.787 211.353 485.208 209.839 482.524 207.086C479.84 204.333 478.372 200.731 478.372 196.853C478.372 192.976 479.84 189.374 482.524 186.621ZM492.504 207.338C498.056 207.338 502.553 202.727 502.553 196.831C502.553 190.934 497.987 186.254 492.504 186.254C487.021 186.254 482.524 190.98 482.524 196.831C482.524 202.681 486.952 207.338 492.504 207.338Z" fill="white"/>
<path d="M539.329 194.559C539.329 198.597 539.099 201.97 537.058 204.952C534.259 208.99 529.877 211.307 525.196 211.307C521.388 211.307 517.901 209.793 515.217 207.04C512.532 204.356 511.064 200.685 511.064 196.808C511.064 188.755 517.258 182.377 525.265 182.377C528.89 182.377 532.102 183.776 535.429 186.575V168.887H539.352V194.536L539.329 194.559ZM525.196 186.323C519.461 186.323 514.849 191.049 514.849 196.899C514.849 202.75 519.461 207.407 525.196 207.407C530.932 207.407 535.543 202.796 535.543 196.899C535.543 191.003 530.932 186.323 525.196 186.323Z" fill="white"/>
<path d="M568.512 199.217C568.512 206.581 563.556 211.307 557.178 211.307C550.8 211.307 545.799 206.512 545.799 199.217V183.088H549.722V199.446C549.722 204.287 553.049 207.384 557.132 207.384C561.216 207.384 564.612 204.287 564.612 199.446V183.088H568.535V199.217H568.512Z" fill="white"/>
<path d="M575.462 168.91H579.431V210.55H575.462V168.91Z" fill="white"/>
<path d="M599.093 211.307C595.308 211.307 591.729 209.839 589.045 207.109C586.36 204.356 584.892 200.685 584.892 196.831C584.892 192.976 586.36 189.351 589.045 186.598C591.729 183.845 595.285 182.4 599.093 182.4C602.902 182.4 606.389 183.868 609.073 186.598C611.758 189.282 613.226 192.976 613.226 196.831V198.23H588.93C589.756 203.782 593.954 207.407 599.093 207.407C601.846 207.407 604.233 206.352 606.573 204.195L609.372 206.81C606.504 209.793 602.994 211.307 599.093 211.307ZM609.211 194.49C607.812 189.351 603.843 186.254 599.116 186.254C594.39 186.254 590.352 189.42 589.022 194.49H609.234H609.211Z" fill="white"/>
<path d="M54.2351 249.46H50.0366V245.652H54.2351C54.5792 238.356 58.5482 233.492 65.9816 231.29V235.374C61.1866 237.301 58.6171 240.742 58.2729 245.652H65.9816V249.46H58.2729V273.114H54.2351V249.46Z" fill="white"/>
<path d="M72.2683 249.162C74.9525 246.409 78.5086 244.895 82.317 244.895C86.1255 244.895 89.6127 246.409 92.297 249.162C94.9812 251.846 96.4495 255.54 96.4495 259.394C96.4495 263.249 94.9812 266.942 92.297 269.627C89.6127 272.38 86.1025 273.894 82.317 273.894C78.5316 273.894 74.9525 272.38 72.2683 269.627C69.584 266.874 68.1157 263.272 68.1157 259.394C68.1157 255.517 69.584 251.915 72.2683 249.162ZM82.2482 269.902C87.8003 269.902 92.297 265.291 92.297 259.394C92.297 253.498 87.7314 248.818 82.2482 248.818C76.765 248.818 72.2683 253.544 72.2683 259.394C72.2683 265.245 76.6962 269.902 82.2482 269.902Z" fill="white"/>
<path d="M101.933 259.394C101.933 250.584 105.558 246.363 114.253 245.675V249.598C108.471 250.24 106.246 253.039 106.246 259.073V273.16H101.933V259.44V259.394Z" fill="white"/>
<path d="M143.665 231.588H147.978V268.502H160.711V273.114H143.665V231.588Z" fill="white"/>
<path d="M176.84 273.871C173.054 273.871 169.475 272.357 166.791 269.604C164.107 266.919 162.638 263.295 162.638 259.371C162.638 255.448 164.107 251.846 166.791 249.139C169.475 246.386 173.1 244.872 176.84 244.872C180.877 244.872 184.319 246.271 187.072 248.956C189.527 251.342 190.628 254.691 191.981 258.477L197.189 273.091H193.106L190.008 265.153C187.37 270.751 182.598 273.848 176.862 273.848L176.84 273.871ZM176.84 248.864C171.127 248.864 166.493 253.544 166.493 259.371C166.493 265.199 171.104 269.948 176.84 269.948C182.575 269.948 187.118 265.336 187.118 259.371C187.118 253.406 182.506 248.864 176.84 248.864Z" fill="white"/>
<path d="M199.713 257.054C199.713 249.69 204.737 244.895 211.092 244.895C217.447 244.895 222.426 249.736 222.426 257.054V273.114H218.503V256.756C218.503 251.915 215.176 248.818 211.092 248.818C207.009 248.818 203.613 251.915 203.613 256.756V273.114H199.69V257.054H199.713Z" fill="white"/>
<path d="M256.587 257.1C256.587 261.138 256.357 264.51 254.315 267.493C251.517 271.531 247.135 273.848 242.454 273.848C238.646 273.848 235.159 272.334 232.474 269.581C229.79 266.896 228.322 263.226 228.322 259.348C228.322 251.296 234.516 244.918 242.523 244.918C246.148 244.918 249.36 246.317 252.687 249.116V231.428H256.61V257.077L256.587 257.1ZM242.454 248.864C236.719 248.864 232.107 253.59 232.107 259.44C232.107 265.291 236.719 269.948 242.454 269.948C248.19 269.948 252.801 265.336 252.801 259.44C252.801 253.544 248.19 248.864 242.454 248.864Z" fill="white"/>
<path d="M299.971 229.133L315.274 273.114H311.007L307.795 263.937H292.148L288.936 273.114H284.371L299.971 229.133ZM306.097 259.394L299.903 241.706L293.777 259.394H306.097Z" fill="white"/>
<path d="M320.389 264.763C321.031 268.044 323.188 269.902 326.354 269.902C329.91 269.902 332.365 267.86 332.365 265.107C332.365 262.354 330.507 261.78 327.341 260.725C321.674 258.867 318.76 256.985 318.76 252.489C318.76 247.992 321.743 245.193 326.583 245.193C329.727 245.193 332.021 246.592 333.581 249.391L330.484 250.974C329.314 249.346 328.029 248.52 326.4 248.52C324.129 248.52 322.362 250.217 322.362 252.328C322.362 255.655 325.161 255.838 328.901 257.054C333.925 258.683 336.082 260.564 336.082 265.245C336.082 269.925 332.044 273.71 326.561 273.71C321.766 273.71 318.21 271.141 316.695 266.529L320.366 264.786L320.389 264.763Z" fill="white"/>
<path d="M342.278 264.763C342.92 268.044 345.077 269.902 348.243 269.902C351.799 269.902 354.254 267.86 354.254 265.107C354.254 262.354 352.395 261.78 349.229 260.725C343.562 258.867 340.649 256.985 340.649 252.489C340.649 247.992 343.631 245.193 348.472 245.193C351.615 245.193 353.909 246.592 355.47 249.391L352.372 250.974C351.202 249.346 349.917 248.52 348.289 248.52C346.017 248.52 344.251 250.217 344.251 252.328C344.251 255.655 347.05 255.838 350.789 257.054C355.814 258.683 357.97 260.564 357.97 265.245C357.97 269.925 353.932 273.71 348.449 273.71C343.654 273.71 340.098 271.141 338.584 266.529L342.255 264.786L342.278 264.763Z" fill="white"/>
<path d="M376.391 273.871C372.606 273.871 369.027 272.403 366.343 269.673C363.658 266.919 362.19 263.249 362.19 259.394C362.19 255.54 363.658 251.915 366.343 249.162C369.027 246.409 372.583 244.964 376.391 244.964C380.2 244.964 383.687 246.432 386.371 249.162C389.055 251.846 390.524 255.54 390.524 259.394V260.794H366.228C367.054 266.346 371.252 269.971 376.391 269.971C379.144 269.971 381.53 268.915 383.87 266.759L386.669 269.374C383.802 272.357 380.314 273.871 376.391 273.871ZM386.486 257.054C385.086 251.915 381.117 248.818 376.391 248.818C371.665 248.818 367.627 251.984 366.297 257.054H386.509H386.486Z" fill="white"/>
<path d="M396.352 264.763C396.995 268.044 399.151 269.902 402.317 269.902C405.874 269.902 408.328 267.86 408.328 265.107C408.328 262.354 406.47 261.78 403.304 260.725C397.637 258.867 394.723 256.985 394.723 252.489C394.723 247.992 397.706 245.193 402.547 245.193C405.69 245.193 407.984 246.592 409.544 249.391L406.447 250.974C405.277 249.346 403.992 248.52 402.363 248.52C400.092 248.52 398.325 250.217 398.325 252.328C398.325 255.655 401.124 255.838 404.864 257.054C409.888 258.683 412.045 260.564 412.045 265.245C412.045 269.925 408.007 273.71 402.524 273.71C397.729 273.71 394.173 271.141 392.659 266.529L396.329 264.786L396.352 264.763Z" fill="white"/>
<path d="M418.24 264.763C418.882 268.044 421.039 269.902 424.205 269.902C427.761 269.902 430.216 267.86 430.216 265.107C430.216 262.354 428.357 261.78 425.191 260.725C419.524 258.867 416.611 256.985 416.611 252.489C416.611 247.992 419.593 245.193 424.434 245.193C427.577 245.193 429.871 246.592 431.431 249.391L428.334 250.974C427.164 249.346 425.879 248.52 424.251 248.52C421.979 248.52 420.213 250.217 420.213 252.328C420.213 255.655 423.012 255.838 426.751 257.054C431.776 258.683 433.932 260.564 433.932 265.245C433.932 269.925 429.894 273.71 424.411 273.71C419.616 273.71 416.06 271.141 414.546 266.529L418.217 264.786L418.24 264.763Z" fill="white"/>
<path d="M452.331 273.871C448.546 273.871 444.967 272.403 442.282 269.673C439.598 266.919 438.13 263.249 438.13 259.394C438.13 255.54 439.598 251.915 442.282 249.162C444.967 246.409 448.523 244.964 452.331 244.964C456.14 244.964 459.627 246.432 462.311 249.162C464.995 251.846 466.464 255.54 466.464 259.394V260.794H442.168C442.994 266.346 447.192 269.971 452.331 269.971C455.084 269.971 457.47 268.915 459.81 266.759L462.609 269.374C459.742 272.357 456.254 273.871 452.331 273.871ZM462.449 257.054C461.049 251.915 457.08 248.818 452.354 248.818C447.628 248.818 443.59 251.984 442.259 257.054H462.472H462.449Z" fill="white"/>
<path d="M471.832 257.054C471.832 249.575 476.443 244.895 482.294 244.895C485.689 244.895 488.373 246.478 490.759 249.69C492.985 246.547 495.899 244.895 499.34 244.895C505.19 244.895 509.733 249.575 509.733 257.054V273.114H505.81V256.756C505.81 251.846 502.827 248.818 499.317 248.818C495.807 248.818 492.778 251.846 492.778 256.756V273.114H488.809V256.756C488.809 251.846 485.781 248.818 482.271 248.818C478.761 248.818 475.732 251.846 475.732 256.756V273.114H471.809V257.054H471.832Z" fill="white"/>
<path d="M529.395 273.871C525.609 273.871 522.03 272.403 519.346 269.673C516.662 266.919 515.193 263.249 515.193 259.394C515.193 255.54 516.662 251.915 519.346 249.162C522.03 246.409 525.586 244.964 529.395 244.964C533.203 244.964 536.69 246.432 539.375 249.162C542.059 251.846 543.527 255.54 543.527 259.394V260.794H519.231C520.057 266.346 524.256 269.971 529.395 269.971C532.148 269.971 534.534 268.915 536.874 266.759L539.673 269.374C536.805 272.357 533.295 273.871 529.395 273.871ZM539.512 257.054C538.113 251.915 534.144 248.818 529.418 248.818C524.692 248.818 520.654 251.984 519.323 257.054H539.535H539.512Z" fill="white"/>
<path d="M548.895 257.054C548.895 249.69 553.919 244.895 560.274 244.895C566.629 244.895 571.608 249.736 571.608 257.054V273.114H567.685V256.756C567.685 251.915 564.358 248.818 560.274 248.818C556.191 248.818 552.795 251.915 552.795 256.756V273.114H548.872V257.054H548.895Z" fill="white"/>
<path d="M579.317 258.385V249.736H576.564V246.065H579.317V239.457H583.355V246.065H591.178V249.736H583.355V259.371C583.355 265.566 585.879 268.847 591.178 269.604V273.756C582.116 271.99 579.317 267.745 579.317 258.385Z" fill="white"/>
<path d="M71.3509 36.5322L106.017 121.052L141.899 36.5322L159.312 146.701H148.346L136.943 73.4465L105.558 146.701L74.93 73.4465L62.0134 146.701H51.3452L71.3051 36.5322H71.3509Z" fill="white"/>
<path d="M205.104 33.6873L244.427 146.724H233.461L225.202 123.163H184.961L176.702 146.724H165.001L205.081 33.6873H205.104ZM220.866 111.439L204.944 65.9672L189.182 111.439H220.866Z" fill="white"/>
<path d="M270.099 36.5322L304.765 121.052L340.647 36.5322L358.06 146.701H347.094L335.692 73.4465L304.307 146.701L273.678 73.4465L260.762 146.701H250.094L270.054 36.5322H270.099Z" fill="white"/>
<path d="M372.951 39.9965H384.055V134.863H416.771V146.724H372.928V39.9965H372.951Z" fill="white"/>
<path d="M462.564 33.6873L501.887 146.724H490.921L482.662 123.163H442.421L434.162 146.724H422.461L462.541 33.6873H462.564ZM478.326 111.439L462.404 65.9672L446.642 111.439H478.326Z" fill="white"/>
<path d="M520.057 119.4C522.007 131.101 530.565 138.304 541.531 138.304C553.232 138.304 562.546 128.692 562.546 116.693C562.546 110.842 560.734 106.025 557.292 102.583C551.144 96.4347 543.94 95.3793 537.172 93.4292C521.25 88.9325 513.312 79.4803 513.312 65.669C513.312 49.747 525.311 38.207 541.233 38.207C552.796 38.207 561.491 44.6538 566.745 56.6756L557.292 60.5758C553.691 52.7754 547.542 48.7146 540.04 48.7146C530.886 48.7146 523.98 55.322 523.98 64.6366C523.98 76.1995 530.289 80.5586 542.288 84.1605C550.846 86.7071 558.348 88.6572 563.762 93.3145C570.071 98.7289 573.375 106.369 573.375 115.683C573.375 134.748 558.807 149.156 541.095 149.156C526.229 149.156 513.174 138.786 510.031 122.887L520.08 119.446L520.057 119.4Z" fill="white"/>
<path d="M585.81 106.185H623.94V114.903H585.81V106.185Z" fill="white"/>
<path d="M651.862 50.5041H633.852V39.9965H662.966V146.724H651.862V50.5041Z" fill="white"/>
</svg>
